<?xml version="1.0" standalone="no"?>
<svg
  width="600"
  height="600"
  viewBox="0 0 600 600"
  xmlns="http://www.w3.org/2000/svg"
>
  <g transform="translate(300,300)">
    <path d="M140.8,-159.8C182.1,-133.1,215.2,-88.4,230.6,-35.5C246,17.3,243.8,78.4,213.4,115.9C183.1,153.5,124.5,167.4,68.4,187.7C12.3,208,-41.4,234.6,-76.2,218.1C-111,201.7,-127,142.1,-156.9,90.5C-186.8,38.9,-230.8,-4.8,-232.6,-49.1C-234.4,-93.3,-194,-138.2,-148.2,-164.1C-102.4,-190.1,-51.2,-197,-0.7,-196.1C49.7,-195.2,99.4,-186.5,140.8,-159.8Z" fill="#f2f2f2" />
  </g>
</svg>
  